<?xml version="1.0" encoding="UTF-8" standalone="no"?><svg xmlns="http://www.w3.org/2000/svg" xmlns:xlink="http://www.w3.org/1999/xlink" contentScriptType="application/ecmascript" contentStyleType="text/css" height="183px" preserveAspectRatio="none" style="width:186px;height:183px;" version="1.1" viewBox="0 0 186 183" width="186px" zoomAndPan="magnify"><defs><filter height="300%" id="faryz0p" width="300%" x="-1" y="-1"><feGaussianBlur result="blurOut" stdDeviation="2.0"/><feColorMatrix in="blurOut" result="blurOut2" type="matrix" values="0 0 0 0 0 0 0 0 0 0 0 0 0 0 0 0 0 0 .4 0"/><feOffset dx="4.0" dy="4.0" in="blurOut2" result="blurOut3"/><feBlend in="SourceGraphic" in2="blurOut3" mode="normal"/></filter></defs><g><line style="stroke: #A80036; stroke-width: 1.0; stroke-dasharray: 5.0,5.0;" x1="34" x2="34" y1="38.2969" y2="145.6953"/><line style="stroke: #A80036; stroke-width: 1.0; stroke-dasharray: 5.0,5.0;" x1="95" x2="95" y1="38.2969" y2="145.6953"/><line style="stroke: #A80036; stroke-width: 1.0; stroke-dasharray: 5.0,5.0;" x1="155" x2="155" y1="38.2969" y2="145.6953"/><rect fill="#FEFECE" filter="url(#faryz0p)" height="30.2969" style="stroke: #A80036; stroke-width: 1.5;" width="49" x="8" y="3"/><text fill="#000000" font-family="sans-serif" font-size="14" lengthAdjust="spacingAndGlyphs" textLength="35" x="15" y="22.9951">Hans</text><rect fill="#FEFECE" filter="url(#faryz0p)" height="30.2969" style="stroke: #A80036; stroke-width: 1.5;" width="49" x="8" y="144.6953"/><text fill="#000000" font-family="sans-serif" font-size="14" lengthAdjust="spacingAndGlyphs" textLength="35" x="15" y="164.6904">Hans</text><rect fill="#FEFECE" filter="url(#faryz0p)" height="30.2969" style="stroke: #A80036; stroke-width: 1.5;" width="44" x="71" y="3"/><text fill="#000000" font-family="sans-serif" font-size="14" lengthAdjust="spacingAndGlyphs" textLength="30" x="78" y="22.9951">John</text><rect fill="#FEFECE" filter="url(#faryz0p)" height="30.2969" style="stroke: #A80036; stroke-width: 1.5;" width="44" x="71" y="144.6953"/><text fill="#000000" font-family="sans-serif" font-size="14" lengthAdjust="spacingAndGlyphs" textLength="30" x="78" y="164.6904">John</text><rect fill="#FEFECE" filter="url(#faryz0p)" height="30.2969" style="stroke: #A80036; stroke-width: 1.5;" width="48" x="129" y="3"/><text fill="#000000" font-family="sans-serif" font-size="14" lengthAdjust="spacingAndGlyphs" textLength="34" x="136" y="22.9951">Carla</text><rect fill="#FEFECE" filter="url(#faryz0p)" height="30.2969" style="stroke: #A80036; stroke-width: 1.5;" width="48" x="129" y="144.6953"/><text fill="#000000" font-family="sans-serif" font-size="14" lengthAdjust="spacingAndGlyphs" textLength="34" x="136" y="164.6904">Carla</text><polygon fill="#A80036" points="83,65.2969,93,69.2969,83,73.2969,87,69.2969" style="stroke: #A80036; stroke-width: 1.0;"/><line style="stroke: #A80036; stroke-width: 1.0;" x1="34.5" x2="89" y1="69.2969" y2="69.2969"/><text fill="#000000" font-family="sans-serif" font-size="13" lengthAdjust="spacingAndGlyphs" textLength="32" x="41.5" y="64.3638">Hallo</text><polygon fill="#A80036" points="143,94.4297,153,98.4297,143,102.4297,147,98.4297" style="stroke: #A80036; stroke-width: 1.0;"/><line style="stroke: #A80036; stroke-width: 1.0;" x1="95" x2="149" y1="98.4297" y2="98.4297"/><text fill="#000000" font-family="sans-serif" font-size="13" lengthAdjust="spacingAndGlyphs" textLength="25" x="102" y="93.4966">Hey</text><polygon fill="#A80036" points="45.5,123.5625,35.5,127.5625,45.5,131.5625,41.5,127.5625" style="stroke: #A80036; stroke-width: 1.0;"/><line style="stroke: #A80036; stroke-width: 1.0;" x1="39.5" x2="154" y1="127.5625" y2="127.5625"/><text fill="#000000" font-family="sans-serif" font-size="13" lengthAdjust="spacingAndGlyphs" textLength="26" x="51.5" y="122.6294">Ola!</text></g></svg>